PathFileType	4	(X/Y/Z)	/Users/niels/Desktop/University/Third Semester/Perception and Action/Exam/Gymnastics Motion Tracking/Code for Gym Tracking/Scripts/Analyzed Data/Start Salto/st_salto_bad_id10_2_Sports2D/st_salto_bad_id10_2_Sports2D_px_person00.trc
DataRate	CameraRate	NumFrames	NumMarkers	Units	OrigDataRate	OrigDataStartFrame	OrigNumFrames
29.80392156862745	29.80392156862745	7	22	m	29.80392156862745	19	153
Frame#	Time	Hip			RHip			RKnee			RAnkle			RBigToe			RSmallToe			RHeel			LHip			LKnee			LAnkle			LBigToe			LSmallToe			LHeel			Neck			Head			Nose			RShoulder			RElbow			RWrist			LShoulder			LElbow			LWrist		
		X1	Y1	Z1	X2	Y2	Z2	X3	Y3	Z3	X4	Y4	Z4	X5	Y5	Z5	X6	Y6	Z6	X7	Y7	Z7	X8	Y8	Z8	X9	Y9	Z9	X10	Y10	Z10	X11	Y11	Z11	X12	Y12	Z12	X13	Y13	Z13	X14	Y14	Z14	X15	Y15	Z15	X16	Y16	Z16	X17	Y17	Z17	X18	Y18	Z18	X19	Y19	Z19	X20	Y20	Z20	X21	Y21	Z21	X22	Y22	Z22
19	0.6375	0.8250500630724052	-0.3436366882121952	0.0	0.8240374375919917	-0.3459995540301878	0.0	0.8183676352318179	-0.4817111879321155	0.0	0.7034506005900171	-0.5144238059549262	0.0	0.6750524028499013	-0.5699427895987326	0.0	0.6719443330346657	-0.5624770952487926	0.0	0.6810141937078511	-0.5127849302481633	0.0	0.827140166698938	-0.3456917044580435	0.0	0.8142545392838629	-0.4736778085738698	0.0	0.7027892174399153	-0.5118583052676579	0.0	0.6809408365906261	-0.564176957119737	0.0	0.6832204726698247	-0.563726376926614	0.0	0.6831689809465418	-0.5102762647926121	0.0	1.0013737212339553	-0.33202392345106674	0.0	1.0774811984394144	-0.3658305084120894	0.0	1.032378891646441	-0.3753688059757228	0.0	0.9903311339110096	-0.3239778692301328	0.0	0.9813031083138389	-0.3968128127507151	0.0	1.0233105803727893	-0.46593673276655445	0.0	0.9898734899387113	-0.3265883843070239	0.0	0.9830047598821852	-0.41294155127205057	0.0	1.0205623646086737	-0.46786058094405897	0.0
20	0.6710526315789473	0.8445428897241545	-0.3263988410080216	0.0	0.8425112040239615	-0.3299178996589438	0.0	0.8349368254812981	-0.4653893678354008	0.0	0.7153340793357814	-0.47404595618117096	0.0	0.6795000337297982	-0.5252771087889984	0.0	0.676636067059366	-0.5172408138682765	0.0	0.6940156765546535	-0.4685828064914413	0.0	0.8462572547788197	-0.3289400616253158	0.0	0.8315393697231064	-0.454444650649507	0.0	0.7150736270611482	-0.4720189893485613	0.0	0.6851395107917457	-0.5185301125379169	0.0	0.6879457805700993	-0.5201870806637362	0.0	0.6967690710578719	-0.46649451896035615	0.0	1.0213286812407982	-0.3382219052937221	0.0	1.0920913073664917	-0.3819149812018539	0.0	1.044084663019594	-0.3862484188098644	0.0	1.0096069710750646	-0.3301815050461625	0.0	0.9828603812192116	-0.3995616860553544	0.0	1.006872785099537	-0.475924011899589	0.0	1.0094793270901865	-0.32975351136692754	0.0	0.9826885416192845	-0.4142983748222844	0.0	1.0045080038622518	-0.47496245512536384	0.0
21	0.7046052631578947	0.8640867682797474	-0.311362355398012	0.0	0.8610187834614665	-0.31592038018411966	0.0	0.8498166959922611	-0.45099268453230174	0.0	0.7286536738235557	-0.4372592910079331	0.0	0.6871223703188679	-0.4835925540857834	0.0	0.6845614623833177	-0.4748742609623869	0.0	0.7092552935043912	-0.4280687722794988	0.0	0.8654699841981811	-0.31476601033188184	0.0	0.8479747248565209	-0.4378103080078079	0.0	0.7297906004219857	-0.43643763591954915	0.0	0.6939280778512203	-0.4771334702543713	0.0	0.6972520111261631	-0.4793248768652379	0.0	0.7132708131309685	-0.42657408294944726	0.0	1.0382576101784802	-0.3461719494770217	0.0	1.1030237222132762	-0.3978923599824375	0.0	1.0537699377769505	-0.39645298411792007	0.0	1.0263077797400644	-0.3373498664656211	0.0	0.9838844557859976	-0.39972951341965696	0.0	0.9879783909746301	-0.478907833536133	0.0	1.0264393387689579	-0.33541239551602653	0.0	0.9814652431739984	-0.41432273710338247	0.0	0.9866025405970511	-0.47648786779515545	0.0
22	0.7381578947368421	0.8833771490621284	-0.2982953397752761	0.0	0.8795323326263765	-0.3034941208785143	0.0	0.8629474432144663	-0.43786147160268424	0.0	0.74318167608462	-0.4044942918720872	0.0	0.6975129421154159	-0.44551227843196683	0.0	0.6955481789717677	-0.436014215213823	0.0	0.7261897001817728	-0.3919967367702043	0.0	0.8844694797883589	-0.3027964509144757	0.0	0.8632452821168909	-0.4238095425163054	0.0	0.7462036342713	-0.40523748957210864	0.0	0.707286401207233	-0.4417485001348309	0.0	0.7109487447296444	-0.4415036631208222	0.0	0.7318673875742205	-0.39104965347985476	0.0	1.0525455111220472	-0.35532935979249675	0.0	1.1109033484306179	-0.4130288083063363	0.0	1.0620897244012373	-0.4053546223619554	0.0	1.0410409106200837	-0.3447090189864944	0.0	0.9853501133829471	-0.3969869300070348	0.0	0.9693401165160729	-0.47488040448838503	0.0	1.0404892531828913	-0.3431888930985624	0.0	0.9802872296966955	-0.4132356527522352	0.0	0.9693928564132794	-0.47312329237356887	0.0
23	0.7717105263157895	0.9023789188853734	-0.28715422891706693	0.0	0.8981334753354282	-0.29226937314843576	0.0	0.8744032221414545	-0.42534740964891177	0.0	0.7586570238693888	-0.3753779657334096	0.0	0.710203528024446	-0.4110837359056368	0.0	0.7090707275713843	-0.4007186370404025	0.0	0.7442794683468686	-0.36021186235014246	0.0	0.9032946952534574	-0.29286402657811667	0.0	0.8771701975235474	-0.41233111448948373	0.0	0.7639232074450955	-0.3779078372324924	0.0	0.7250270322069429	-0.4133529698315577	0.0	0.728852273910568	-0.4067315399747904	0.0	0.752133426759265	-0.360044585432813	0.0	1.064555267521063	-0.3651362593956415	0.0	1.1162132194707612	-0.4268205573453949	0.0	1.0692844201557954	-0.4128518112228573	0.0	1.0541925600642885	-0.35189529314318296	0.0	0.9877746840419503	-0.39147614647481455	0.0	0.9530396449572961	-0.4646485177103538	0.0	1.051654252519896	-0.35266024593480433	0.0	0.9798693761981873	-0.411329490989755	0.0	0.9546368324264469	-0.4658448760280329	0.0
24	0.8052631578947369	0.9210561474447032	-0.2779809258974885	0.0	0.9167517416915005	-0.28212811202714133	0.0	0.8841939261448145	-0.4130935956933293	0.0	0.7747057955595182	-0.349339572836959	0.0	0.7246083029102133	-0.3802897223129296	0.0	0.7243291381476711	-0.36893867133496216	0.0	0.7628944309053847	-0.3322726581280703	0.0	0.92202292710538	-0.2849468480282337	0.0	0.8895593701913109	-0.4030561436733956	0.0	0.7827444891043343	-0.35394518750109266	0.0	0.7468894128468895	-0.3923724360127323	0.0	0.75091527309422	-0.37531569548900173	0.0	0.7736756352795405	-0.33353761503062046	0.0	1.0744549850775713	-0.3749368787932015	0.0	1.1192609300429275	-0.43903911972220966	0.0	1.0752873371808331	-0.41929215069499287	0.0	1.0656692320577676	-0.35872995378703354	0.0	0.9911832068676135	-0.38395074910940524	0.0	0.9403709329836786	-0.44979980746289516	0.0	1.060332043669794	-0.36331964374199316	0.0	0.9807428526750306	-0.4089688335594193	0.0	0.9433778945047328	-0.4557227706344998	0.0
25	0.8388157894736842	0.9390603615937364	-0.2707238914605485	0.0	0.9348767589888166	-0.27319321661585694	0.0	0.8922150567803865	-0.40118326317521785	0.0	0.7908916744822165	-0.3260969941332845	0.0	0.739948885179165	-0.3530799679701299	0.0	0.7403982130221884	-0.3406500107404718	0.0	0.7813920072178279	-0.30793795488103964	0.0	0.9403478087052294	-0.27892014662102005	0.0	0.9000768498768684	-0.3955586524677846	0.0	0.8022008413666412	-0.3330628444280524	0.0	0.7720013857605793	-0.3781809687468945	0.0	0.7766234990094811	-0.3477884588794104	0.0	0.7956789200612123	-0.3112766150920984	0.0	1.082235745274846	-0.38401959164949045	0.0	1.120361254514874	-0.4497031352039484	0.0	1.0800105398588247	-0.4251874318721248	0.0	1.0750981425375856	-0.36504851446647557	0.0	0.9952172309893162	-0.37557430618925847	0.0	0.9318933044177061	-0.43242915910733504	0.0	1.0672253802525498	-0.37433670128099306	0.0	0.983216738384429	-0.40613222706530244	0.0	0.9360321830002439	-0.4436077901851382	0.0
